# xmcd
#
# Track frame offsets: 
#        150
#        19811
#        39893
#        59880
#        71309
#        88287
#        106008
#        123586
#        143889
#        163690
#        176036
#        196267
#        215613
#
# Disc length: 3154 seconds
#
# Revision: 0
# Processed by: cddbd v1.5.2PL0 Copyright (c) Steve Scherf et al.
# Submitted via: ExactAudioCopy v0.99pb3
#
DISCID=bc0c500d
DTITLE=TRIO三重奏 - 純真年代-橄欖樹
DYEAR=2009
DGENRE=
TTITLE0=橄欖樹
TTITLE1=外婆的澎湖灣
TTITLE2=秋蟬
TTITLE3=鄉間的小路
TTITLE4=走在雨中
TTITLE5=拜訪春天
TTITLE6=月琴
TTITLE7=木棉道
TTITLE8=忘了我是誰
TTITLE9=讓我們看雲去
TTITLE10=恰似你的溫柔
TTITLE11=浮雲遊子
TTITLE12=如果
EXTD=
EXTT0=
EXTT1=
EXTT2=
EXTT3=
EXTT4=
EXTT5=
EXTT6=
EXTT7=
EXTT8=
EXTT9=
EXTT10=
EXTT11=
EXTT12=
PLAYORDER=
